<svg width="49" height="49" fill="none" xmlns="http://www.w3.org/2000/svg"><circle cx="24.5" cy="24.5" r="24.5" fill="#000"/><path d="M17.227 30.25c-1.093-.063-1.072-1.785 0-1.845 3.035.012 11.042.003 14.174.006.857 0 1.59-.654 1.782-1.59l1.779-8.632a1.806 1.806 0 00-.282-1.404c-.281-.397-.702-.628-1.155-.628-1.26 0-11.955-.055-17.433-.08l-.868-3.611c-.209-.863-.912-1.466-1.71-1.466h-2.781c-.405 0-.733.368-.733.822 0 .453.328.82.733.82h2.782c.137 0 .258.105.294.252l3.335 13.87c-.587.024-1.133.292-1.547.763a2.717 2.717 0 00-.658 1.845c.021 1.39 1.048 2.52 2.288 2.52h1.068a3.148 3.148 0 00-.248 1.233c0 1.585 1.15 2.875 2.565 2.875s2.565-1.29 2.565-2.875a3.14 3.14 0 00-.248-1.232h4.627a3.148 3.148 0 00-.247 1.231c0 1.586 1.15 2.876 2.564 2.876 1.415 0 2.565-1.29 2.565-2.876 0-.457-.096-.89-.267-1.275.29-.11.5-.416.5-.778 0-.454-.328-.821-.733-.821H17.227zm4.485 2.875c0 .68-.494 1.232-1.1 1.232-.606 0-1.1-.553-1.1-1.232 0-.68.494-1.232 1.1-1.232h.001c.606 0 1.099.553 1.099 1.232zm8.162 1.232c-.607 0-1.1-.553-1.1-1.233 0-.672.484-1.22 1.082-1.231h.035c.598.01 1.082.559 1.082 1.231 0 .68-.493 1.233-1.1 1.233zm3.657-16.552c.004.006.004.01.003.014l-.75 3.638h-2.537l.432-3.67 2.84.012c.005 0 .008 0 .012.006zm-7.555 8.963V23.1h2.599l-.432 3.668h-2.167zm-3.634 0l-.435-3.668h2.603v3.668h-2.168zm-3.374 0h-.002c-.179 0-.336-.135-.382-.328l-.804-3.34h2.648l.435 3.668h-1.895zm2.743-5.311l-.44-3.713 3.24.015v3.698h-2.8zm4.265 0v-3.692l3.225.015-.433 3.677h-2.792zm-6.185-3.72l.442 3.72h-2.848l-.898-3.735 3.304.015zm11.61 9.031h-1.78l.432-3.668h2.393l-.691 3.352c-.038.186-.184.316-.354.316z" fill="#fff"/></svg>