<svg width="101" height="94" fill="none" xmlns="http://www.w3.org/2000/svg"><rect width="100.655" height="94" rx="15" fill="#D3FFEF"/><path d="M83.512 21.346c-3.113 0-5.785.217-8.366-2.345l-3.34-3.315a8.094 8.094 0 00-5.702-2.345H56.67a8.126 8.126 0 00-5.715 2.345l-.049.048-6.291 6.246a6.917 6.917 0 00-2.05 4.909v2.096c0 3.798 3.038 7.716 6.823 8.277.42.062.834.092 1.241.092v.533c-6.623 3.789-20.214 11.43-22.905 14.081-2.265 2.25-3.973 5.804-3.973 9.398 0 1.604.212 3.235 1.151 5.356l-7.87-.02c-2.227 0-4.032 1.792-4.032 4.002s1.805 4.002 4.032 4.002h33.557c1.997 0 3.381-2.128 2.416-3.863a8.08 8.08 0 00-3.86-3.484c.924-1.82 1.46-3.326 3.776-3.326h3.084v8.005a2.678 2.678 0 002.688 2.668h10c2.06 0 3.393-2.231 2.352-3.998a8.088 8.088 0 00-5.981-3.906l.597-4.747c3.231-1.969 5.612-5.24 6.267-9.026.916-5.299-1.356-10.084-5.172-12.947v-5.397h8.064c2.956 0 6.62-2.059 8.141-4.576.641-1.06 3.249-4.905 3.242-6.105a2.68 2.68 0 00-2.691-2.659zM50.618 34.657c-3.287 0-5.364-2.763-5.364-5.604V26.89c0-1.11.426-2.195 1.261-3.024l6.292-6.245a5.508 5.508 0 013.198-1.544V29.35c0 2.853-2.315 5.307-5.387 5.307zM17.032 72.038a1.34 1.34 0 01-1.344-1.334 1.34 1.34 0 011.336-1.334l9.5.024c.996 1.298 1.158 1.517 2.683 2.644H17.032zm63.625-43.301c-1.091 1.804-3.718 3.28-5.837 3.28h-6.856a4.024 4.024 0 01-3.784-2.667h-2.8c.344 1.675 1.337 3.106 2.688 4.07v7.99c3.872 2.905 6.068 6.214 5.211 11.167-.68 3.933-3.077 6.018-6.124 7.875l-1.092 8.668c2.71.334 5.153.34 6.63 2.918h-10v-13.34h-2.688v2.667h-3.084c-.83 0-1.603.218-2.337.526.132-3.626-1.19-7.276-3.892-9.958l-1.9 1.886c3.985 3.958 3.74 9.747 1.47 13.28l-.806 1.58c2.09.9 4.094 1.462 5.133 3.36H37.182c-5.955-.006-10.658-4.768-10.729-10.53-.057-3.191 1.402-6.493 4.355-8.676 2.958-2.188 19.313-11.576 22.51-13.405 0-.725 0-1.874-.003-2.564 3.126-1.102 5.378-4.034 5.378-7.514V16.01h7.412c1.425 0 2.792.562 3.8 1.562l3.34 3.315c1.914 1.9 4.43 2.96 7.117 3.08a3.75 3.75 0 001.822 2.244l-1.527 2.526z" fill="#000"/></svg>