<svg width="100" height="94" fill="none" xmlns="http://www.w3.org/2000/svg"><path d="M0 15C0 6.716 6.716 0 15 0h70c8.284 0 15 6.716 15 15v64c0 8.284-6.716 15-15 15H15C6.716 94 0 87.284 0 79V15z" fill="#F6DBFF"/><path d="M69.51 29.51c0-4.427-2.948-11.45-10.862-11.45-3.251 0-5.986 1.506-8.153 4.482-2.167-2.976-4.902-4.482-8.153-4.482-7.914 0-10.863 7.023-10.863 11.45 0 7.632 6.064 12.406 14.349 19.365a682.813 682.813 0 013.818 3.223c.244.208.546.312.849.312.303 0 .605-.104.849-.312 1.342-1.143 2.6-2.2 3.818-3.223C63.835 41.59 69.51 36.981 69.51 29.51zM50.496 49.455c-1.035-.877-2.022-1.706-2.983-2.514-8.668-7.28-13.443-11.29-13.443-17.431 0-4.166 2.775-8.905 8.273-8.905 2.869 0 5.164 1.618 7.017 4.947.227.408.662.662 1.136.662.474 0 .91-.254 1.136-.662 1.853-3.33 4.148-4.947 7.017-4.947 5.421 0 8.273 4.67 8.273 8.905 0 6.14-4.775 10.151-13.443 17.431-.961.808-1.948 1.637-2.983 2.514zm-23.851 18.49l6.236 3.062v6.847c0 .702.58 1.272 1.295 1.272h13.729c.715 0 1.295-.57 1.295-1.272V61.245c0-3.898-2.977-7.13-6.914-7.518l-.106-.011c-2.28-.224-6.315-1.756-7.908-3.32l-2.91-2.857a5.194 5.194 0 00-3.662-1.49V35.87c0-2.806-2.324-5.089-5.18-5.089-2.857 0-5.182 2.283-5.182 5.089v17.282c0 6.26 3.6 11.989 9.307 14.792zM19.93 35.87c0-1.403 1.162-2.544 2.59-2.544 1.429 0 2.59 1.141 2.59 2.544v10.86c-1.58.897-2.59 2.57-2.59 4.406a5.01 5.01 0 001.518 3.598l6.633 6.516a1.312 1.312 0 001.831 0 1.256 1.256 0 000-1.799l-6.632-6.516c-.49-.48-.76-1.12-.76-1.799a2.551 2.551 0 011.728-2.4 2.62 2.62 0 012.694.602l2.909 2.856c3.003 2.95 9.564 4.06 9.577 4.063 2.618.258 4.592 2.402 4.592 4.987V76.58H35.471v-6.36a1.27 1.27 0 00-.716-1.139l-6.951-3.413c-4.858-2.386-7.875-7.182-7.875-12.516V35.87zm56.857 30.28c.716 0 1.296-.57 1.296-1.273s-.58-1.272-1.296-1.272c-.715 0-1.295.57-1.295 1.272 0 .703.58 1.272 1.295 1.272z" fill="#000"/><path d="M78.471 30.782c-2.856 0-5.18 2.283-5.18 5.089v10.178c-1.384 0-2.684.53-3.663 1.49l-2.91 2.857c-1.593 1.565-5.628 3.096-7.917 3.321l-.086.01c-3.948.388-6.925 3.62-6.925 7.518v16.609c0 .702.58 1.272 1.296 1.272h13.729c.715 0 1.295-.57 1.295-1.272v-6.847l4.239-2.082c.64-.314.9-1.078.58-1.707a1.306 1.306 0 00-1.738-.569l-4.956 2.433a1.27 1.27 0 00-.716 1.138v6.361H54.381V61.245c0-2.585 1.974-4.73 4.602-4.988l.086-.01c2.81-.276 7.461-2.068 9.481-4.052l2.91-2.856a2.621 2.621 0 012.693-.602h.001a2.551 2.551 0 011.727 2.4c0 .68-.27 1.318-.76 1.8l-6.632 6.516a1.256 1.256 0 000 1.799 1.312 1.312 0 001.832 0l6.633-6.517a5.011 5.011 0 001.517-3.598c0-1.837-1.01-3.51-2.59-4.406V35.87c0-1.403 1.162-2.544 2.59-2.544 1.429 0 2.59 1.141 2.59 2.544v17.282c0 2.327-.597 4.638-1.729 6.682a1.26 1.26 0 00.52 1.725 1.307 1.307 0 001.756-.51 16.352 16.352 0 002.044-7.897V35.87c0-2.806-2.324-5.089-5.18-5.089z" fill="#000"/></svg>