<svg width="100" height="94" fill="none" xmlns="http://www.w3.org/2000/svg"><path d="M0 15C0 6.716 6.716 0 15 0h70c8.284 0 15 6.716 15 15v64c0 8.284-6.716 15-15 15H15C6.716 94 0 87.284 0 79V15z" fill="#FFF6D5"/><path d="M79.726 27.494H65.995V24.59c0-.51-.395-.925-.882-.925h-.942v-1.123c0-3.607-2.799-6.541-6.24-6.541h-5.51c-.486 0-.881.414-.881.925 0 .51.395.925.882.925h5.51c2.467 0 4.475 2.104 4.475 4.691v1.123h-1.894v-1.123c0-1.492-1.158-2.706-2.581-2.706H43.068c-1.423 0-2.58 1.214-2.58 2.706v1.123h-1.895v-1.123c0-2.587 2.008-4.691 4.475-4.691h5.51c.488 0 .883-.415.883-.925S49.066 16 48.579 16h-5.51c-3.44 0-6.24 2.934-6.24 6.541v1.123h-.942c-.487 0-.882.414-.882.925v2.905h-13.73c-.488 0-.882.415-.882.925v45.962c0 .51.394.924.882.924h58.45c.488 0 .883-.414.883-.924V28.419c0-.51-.395-.925-.882-.925zm-15.495 0h-5.542v-1.98h5.542v1.98zm-21.98-4.953c0-.472.367-.857.817-.857h14.864c.45 0 .817.385.817.857v1.123h-.943c-.487 0-.882.414-.882.925v2.905H44.076V24.59c0-.51-.395-.925-.882-.925h-.943v-1.123zm-5.481 2.973h5.542v1.98H36.77v-1.98zm-14.613 3.83h56.687v13.47H22.157v-13.47zm43.838 15.32h3.716v5.796h-3.716v-5.796zm-34.705 0h3.715v5.796H31.29v-5.796zm47.554 28.792H22.157V44.664h1.888V55.13c0 .511.395.925.882.925.488 0 .882-.414.882-.925V44.665h3.717v6.72c0 .51.394.925.882.925h5.48c.487 0 .882-.414.882-.925v-6.72h27.46v6.72c0 .51.395.925.882.925h5.48c.487 0 .882-.414.882-.925v-6.72h3.716v24.947h-3.716v-6.737c0-.51-.395-.925-.882-.925h-5.48c-.487 0-.882.414-.882.925v6.737H36.77v-6.737c0-.51-.395-.925-.883-.925h-5.48c-.487 0-.881.414-.881.925v6.737h-3.717V59.16c0-.51-.394-.924-.882-.924-.487 0-.882.414-.882.924v11.376c0 .511.395.925.882.925h51.146c.487 0 .882-.414.882-.925V44.665h1.889v28.79zM65.995 69.61V63.8h3.716v5.81h-3.716zm-34.705 0V63.8h3.715v5.81H31.29z" fill="#000"/><path d="M76.068 40.83c.487 0 .882-.414.882-.925v-7.651c0-.51-.395-.925-.882-.925h-9.034c-.487 0-.882.414-.882.925 0 .51.395.925.882.925h8.152v5.801H25.814v-5.8H63.19c.487 0 .882-.414.882-.925 0-.51-.394-.925-.882-.925H24.93c-.486 0-.881.414-.881.925v7.65c0 .512.395.926.882.926h51.136zM47.791 59.985v2.905c0 .51.395.925.883.925h3.653c.487 0 .882-.414.882-.925v-2.905h2.771c.487 0 .882-.414.882-.925v-3.83c0-.51-.395-.925-.882-.925h-2.771V51.4c0-.51-.395-.925-.882-.925h-3.654c-.487 0-.882.414-.882.925v2.905h-2.77c-.488 0-.883.414-.883.925v3.83c0 .51.395.925.882.925h2.771zm-1.889-3.83h2.771c.488 0 .883-.414.883-.925v-2.905h1.889v2.905c0 .51.395.925.882.925h2.77v1.98h-2.77c-.487 0-.882.414-.882.925v2.905h-1.89V59.06c0-.51-.394-.925-.882-.925h-2.77v-1.98z" fill="#000"/><path d="M50.5 67.415c4.443 0 8.057-4.65 8.057-10.366 0-5.716-3.614-10.366-8.057-10.366-4.442 0-8.057 4.65-8.057 10.366 0 5.716 3.615 10.366 8.057 10.366zm0-18.906c3.66 0 6.638 3.83 6.638 8.54 0 4.709-2.978 8.54-6.638 8.54-3.66 0-6.637-3.831-6.637-8.54 0-4.71 2.977-8.54 6.637-8.54z" fill="#000"/></svg>