<svg width="36" height="37" fill="none" xmlns="http://www.w3.org/2000/svg"><path d="M34.625 13.783c-2.968 0-6.125 2.133-6.125 6.084 0 2.005.882 3.437 1.735 4.823.907 1.475 1.765 2.868 1.765 5.063 0 3.583-2.003 5.324-6.125 5.324h-.977c1.14-.967 1.852-2.312 1.852-3.802v-3.042c0-3.909-2.6-5.893-4.496-7.341-.368-.281-.713-.544-1.01-.802a41.953 41.953 0 00-1.658-1.328c-1.576-1.221-4.211-3.265-4.211-4.219V6.938c0-2.192-1.899-3.237-2.784-3.603-.367-.932-1.548-3.242-4.216-3.242-.484 0-.875.34-.875.761 0 1.178-.601 2.282-.875 2.282-1.263 0-2.018.984-2.625 1.778-.224.29-.436.567-.619.726-.215.187-.531.376-.858.576C1.575 6.8.5 7.462.5 8.46c0 2.77 3.756 3.803 6.125 3.803.525 0 .685.034.706.034h.002c.169.214.169 1.328.167 2.617v.39c0 .372-.154.611-.475 1.076-.538.78-1.275 1.846-1.275 4.248 0 1.603 1.342 4.04 1.75 4.746v6.662h-.875C5.177 32.035 4 33.058 4 34.317v1.52c0 .42.391.761.875.761h21c5.08 0 7.875-2.43 7.875-6.845 0-2.575-1.048-4.279-1.972-5.78-.82-1.333-1.528-2.483-1.528-4.106 0-3.348 2.617-4.563 4.375-4.563.484 0 .875-.34.875-.76 0-.421-.391-.761-.875-.761z" fill="#000"/></svg>