<svg width="42" height="42" fill="none" xmlns="http://www.w3.org/2000/svg"><g clip-path="url(#clip0)"><path d="M41.89 21.449c-3.499-6.262-9.25-10.091-15.99-10.8-3.38-4.269-13.983-5.35-14.44-5.395a.872.872 0 00-.9 1.185c1.039 2.699 2.104 5.768 2.385 7.024-1.925.881-3.608 1.818-4.693 2.599C5.899 12.297 1.095 12.25.875 12.25a.875.875 0 00-.875.875c0 5.07 1.767 7.614 2.949 8.75C1.767 23.011 0 25.555 0 30.625c0 .484.391.875.875.875.22 0 5.024-.047 7.377-3.812 1.441 1.038 3.934 2.35 6.657 3.44-.601.973-.909 2.522-.909 4.747 0 .484.392.875.875.875.26 0 6.21-.051 9.174-3.527 7.536-.146 14.026-4.093 17.84-10.921a.876.876 0 000-.853zm-17.535-6.091c-.016.025-1.605 2.49-1.605 6.517 0 2.188.468 3.897.86 4.945a.875.875 0 11-1.638.614c-.444-1.184-.972-3.11-.972-5.559 0-4.587 1.82-7.37 1.897-7.485a.876.876 0 011.458.968zm3.255 14.245a.875.875 0 01-1.213-.243c-.078-.116-1.897-2.898-1.897-7.485s1.82-7.369 1.897-7.485a.876.876 0 011.458.968c-.016.025-1.605 2.49-1.605 6.517 0 4.063 1.587 6.49 1.603 6.515a.874.874 0 01-.243 1.213zM31.5 21c-.965 0-1.75-.785-1.75-1.75s.785-1.75 1.75-1.75 1.75.785 1.75 1.75S32.465 21 31.5 21z" fill="#000"/></g><defs><clipPath id="clip0"><path fill="#fff" d="M0 0h42v42H0z"/></clipPath></defs></svg>