<svg width="42" height="42" fill="none" xmlns="http://www.w3.org/2000/svg"><g clip-path="url(#clip0)"><path d="M34.935 11.332c-.093-1.214-1.45-2.478-2.852-2.571-1.403-.093-2.76.047-1.918 1.028.842.982 1.122 1.918.702 1.779-.422-.142-2.105-1.123-7.156-.328-.655.186-3.367-2.012-7.063-2.059-3.694-.046-6.406 1.007-10.288 11.47-.374.925-2.993 3.076-4.397 4.104C.561 25.786.001 26.938 0 28.996c-.003 2.881 4.115 4.314 12.954 4.266 8.84-.046 13.517-1.49 13.517-1.49-9.962 1.075-25.212 1.67-25.212-2.964 0-3.275 4.493-4.517 5.756-4.471 1.263.047 2.152 2.01 5.285.889.515-.047.234.701-.188 1.169-.42.466-.093 1.029 1.544 1.029s6.534.047 7.57 0c1.035-.048 1.877-1.871-1.49-2.012-2.942.05 1.908-.916 2.525-3.46.113-.624 1.403-.657 2.526-.654 3.296.005 5.47 6.06 6.173 6.082.7.024 2.853.258 2.806-.677-.047-.936-1.823-.515-2.198-1.03-.375-.513-1.59-2.46-1.169-3.348.42-.887 2.01-3.368 3.881-3.647 1.87-.282 6.735 1.168 7.53 0 .795-1.17-1.076-1.827-2.526-4.54-.607-1.355-1.402-2.758-4.349-2.806z" fill="#000"/></g><defs><clipPath id="clip0"><path fill="#fff" d="M0 0h42v42H0z"/></clipPath></defs></svg>