<svg width="42" height="42" fill="none" xmlns="http://www.w3.org/2000/svg"><g clip-path="url(#clip0)"><path d="M41.528 23.35c-.121-.58-.17-1.193-.635-1.667-.492-.503-1.124-.622-1.758-.69-.775-.083-1.558-.088-2.397-.122-.09-.004-.146-.079-.124-.168l.13-.514c.322-1.24.164-2.416-.412-3.562-.529-1.05-.675-2.143-.228-3.28.135-.342.196-.711.274-1.06.02-.089.11-.178.2-.185.55-.042.632.42.788.908.198.618.393 1.287.942 1.708.2.154.524.244.775.218.798-.082 1.452-.558 2.063-1.01.234-.174.29-.744.241-1.108-.07-.535-.328-1.042-.467-1.57a85.928 85.928 0 01-.525-2.158c-.068-.29-.194-.611-.17-.912.025-.311.228-.579.244-.893.02-.365-.078-.695-.169-1.043-.185-.71-.387-1.369-.83-1.964-.055-.073-.12-.095-.081-.176.275-.56.076-1.085-.1-1.604-.02-.06-.209-.08-.32-.084-.047-.001-.096.09-.142.141-.18.203-.324.484-.55.584-.175.078-.453-.056-.678-.123-.584-.175-1.146-.062-1.713.087a.52.52 0 01-.38-.076 22.52 22.52 0 01-.588-.422c-.321-.239-.627-.479-.683-.456-.03.011-.052.041-.063.085-.018.08-.031.152-.002.192.243.337.283.707.278 1.046a.346.346 0 01-.144.255c-.28.177-.549.32-.757.525-2.231 2.187-3.777 4.863-5.906 7.122-1.957 2.075-4.588 2.77-7.37 2.74-2.778-.029-5.363-.938-7.884.715-.05.033-.09.072-.137.107-.203.124-.406.252-.609.383-1.335.865-3.012 1.817-4.334 1.374a1.214 1.214 0 01-.77-.749c-.117-.312.01-.858-.232-1.063-.597.62-.386 2.054-.15 2.6.205.474.514.919.9 1.198.107.077 1.349.39 1.342.416l-.042.179c-.017.07-1.53.224-1.664.23-.588.024-1.132-.106-1.53-.519-.322-.334-.51-.807-.579-1.337-.042-.327-.003-.675.02-1.02.012-.17.105-1.02-.27-.544-.793 1.009-1.476 2.136-2.058 3.289-.418.83-.886 1.865-.8 2.737.032.319.184.566.39.731.174.139.45.166.391.479-.078.42-.609.857-.685 1.3-.108.624.48 1.01.729 1.404.197.31.624.938.27 1.43-.328.454-.91.345-1.23.214a2.003 2.003 0 01-.836-.627 1.885 1.885 0 01-.263-.475c.002.007-.157-.462-.197-.318-.086.308-.02.657.002.95.023.313.079.613.196.872.265.583.792.887 1.367 1.002 1.341.268 2.911-.386 4.091-1.659 1.202-1.295 2.09-3.011 2.986-4.555.51-.88 1.009-1.785 1.533-2.669-.024.538-.038 1.073-.094 1.605a80.902 80.902 0 01-.433 3.578c-.05.33-.246.65-.417.95-.392.688-.826 1.353-1.211 2.045a1.98 1.98 0 00-.233.79c-.054.706-.064 1.416-.092 2.125-.002.068.01.145-.019.202-.35.706-.36 1.48-.48 2.235-.11.688-.286 1.365-.417 2.051a.98.98 0 00.019.498c.217.582.149 1.118-.14 1.663-.143.272.025.432.321.444.316.011.631.014.947.031.218.012.436.034.68.057a.15.15 0 00.116-.037c.05-.047.043-.262.042-.445 0-.113.001-.223.009-.331.103-1.475.046-2.989.37-4.414.337-1.472.916-2.912 1.805-4.192.403-.58.68-1.248 1.04-1.861.116-.2.277-.413.473-.523.895-.505 1.275-1.447 1.901-2.177.061-.07.105-.156.164-.228a.577.577 0 01.038-.041c.022-.022.088.022.16.078.125.102.24.187.321.298.18.248.38.506.471.791.277.858.207 1.745.124 2.627-.023.24-.089.477-.107.72-.04.501-.062 1.004-.087 1.507-.045.921.157 1.77.552 2.62.495 1.066.848 2.2 1.258 3.306.228.614.548 1.16 1.059 1.59a.833.833 0 01.256.45c.12.638.492.902 1.13.767.431-.091.876-.141 1.29-.284.27-.094.45-.25.099-.593a10.443 10.443 0 01-1.431-1.736c-.42-.638-.752-1.341-1.077-2.037-.366-.785-.29-1.6-.075-2.416.055-.206.11-.444.06-.64-.175-.681.015-1.309.21-1.942.33-1.074.663-2.148.991-3.224a.624.624 0 00.022-.085c.011-.047.025-.151.083-.185a.134.134 0 01.117-.006c.568.22 1.121.475 1.702.615 1.2.29 2.416.473 3.651.16.453-.115.927-.159 1.373-.296.347-.107.421.053.433.32.015.315-.025.635.01.947.134 1.207.308 2.41.433 3.619.134 1.297.729 2.522.562 3.872-.073.598-.034 1.214.002 1.82.01.175.187.34.286.51.064.108.176.216.178.326.006.421-.01.844-.045 1.264-.02.264-.1.524.288.582.61.093 1.215.235 1.83.288.569.049.783-.272.533-.807-.31-.666-.683-1.303-1.029-1.951-.019-.035-.062-.064-.065-.1-.12-1.177-.5-2.323-.21-3.549.169-.72.116-1.5.108-2.251-.012-1.31.085-2.6.317-3.892.118-.659.1-1.341.122-1.94a.244.244 0 01.051-.132c.048-.063.465-.199.898-.34.304-.1.6-.195.876-.285a.502.502 0 01.308.012c.42.182.813.4 1.229.465.47.071 1 .04 1.452-.104 1.043-.333 2.056-.76 3.08-1.152.189-.072.371-.157.558-.234.432-.176.57-.138.579.294.017.852.007 1.71-.08 2.558-.05.48-.199.977-.703 1.248-.096.051-.158.213-.186.335a61.965 61.965 0 00-.368 1.775c-.066.335.17 1.003.388 1.13.373.22.877-.03 1.129-.54.075-.152.167-.316.297-.418.837-.66 1.274-1.607 1.74-2.509.283-.546.301-1.185.128-1.839-.194-.736-.205-1.52-.36-2.27z" fill="#000"/></g><defs><clipPath id="clip0"><path fill="#fff" d="M0 0h42v42H0z"/></clipPath></defs></svg>