<svg width="42" height="42" fill="none" xmlns="http://www.w3.org/2000/svg"><path d="M32.831 23.795c-2.048-.175-1.383 1.996-3.544 1.772-3.95-.407-5.513-2.727-10.773-2.864-2.793-.073-5.37 1.805-6.27 1.639-1.275-.235-3.752-1.225-3.616-4.432.138-3.203 2.046-5.184 4.842-6.14 2.795-.953 8.522-3.27 8.522-7.973C21.992 1.092 18.514 0 17.56 0c-.954 0-1.05.908.07 1.296 1.158.402 2.793 2.18 2.793 3.953 0 1.775-.203 4.704-6.884 6.547-6.682 1.84-7.684 5.727-7.684 8.25 0 2.52 1.412 6.541 5.638 6.748.75-.07.92.62.75 1.159-.182.58-.274 3.211.204 4.44.478 1.226 0 1.226-.954 1.702-.955.48-4.704 2.388-4.704 2.388s-.818.75-.204 1.568c.613.817 2.725 4.159 4.498 3.271.82-.477-.749-1.838-2.248-2.93-.341-.341-.683-.82.544-.955 1.228-.136 6.68-.885 6.75-4.908.022-.77.136-.613.818-.273.682.341 2.862.956 2.59 2.045-.273 1.09-.34 3.613-.34 4.567-.477.273-.82 1.57 1.226 2.182 2.046.613 4.705 1.184 4.637.42-.069-.76-2.593-1.1-3.887-1.715-.75-.34-.545-.819.137-2.183.682-1.363 2.114-4.771.818-5.725-.545-.272-.136-.75.955-.544 1.09.201 1.5.272.954 1.09-.546.82-.888 1.908-.41 3.546.479 1.633 1.433 4.84 1.433 4.84s.069.891 1.022 1.06c.954.165 2.863.438 2.796-.584-.068-1.023-1.569-.749-2.113-.682-.547.069-.888-.75-.752-1.976.137-1.227.137-4.84 1.023-4.636.886.205.07 1.704 4.158 5.725 1.297 1.569 2.25 1.566 3.546 1.502 1.295-.069 1.704-.956-.75-1.365-1.431-.137-1.227-.068-1.91-1.568-.68-1.5-2.044-2.659-2.044-3.612 0-.955 1.227-2.253 1.158-4.436 0-.887.615-.954 1.297-.476.681.476 2.544.2 3.282-.82.74-1.026.262-1.705-.42-2.73-.477-1.022.116-2.16-2.522-2.386z" fill="#000"/></svg>