<svg width="42" height="42" fill="none" xmlns="http://www.w3.org/2000/svg"><path d="M41.998 30.935l-.638-.35c-.04-.023-4.036-2.256-4.036-5.483v-1.845c0-1.458-.4-2.83-1.103-4.006a4.515 4.515 0 002.416-3.993h-2.461c0 .993-.71 1.824-1.65 2.011a7.785 7.785 0 00-3.685-1.694l-13.695-2.334a3.698 3.698 0 01-2.704-2.034L9.468 1.723H7.465v4.445l-3.281.82v.868L0 9.496v1.35l2.443 2.443h5.022v4.243a9.898 9.898 0 004.101 8.05v12.234h-2.46v2.461h4.921V38.26l2.964-10.853c.31-.039 11.776-2.19 11.776-2.19a12.658 12.658 0 003.01 4.776 12.617 12.617 0 007.762 3.663v4.16h-2.46v2.461H42v-8.613l-.002-.729z" fill="#000"/></svg>