<svg width="13" height="10" fill="none" xmlns="http://www.w3.org/2000/svg"><path d="M11.857 0H1.143C.51 0 0 .563 0 1.25v7.5C0 9.441.515 10 1.143 10h10.714C12.483 10 13 9.444 13 8.75v-7.5C13 .564 12.49 0 11.857 0zm-.16.833L7.307 5.61a1.088 1.088 0 01-.807.366 1.09 1.09 0 01-.809-.367L1.303.833h10.394zM.762 8.58V1.42l3.291 3.582L.762 8.58zm.541.587l3.29-3.577.56.61c.36.393.838.61 1.347.61s.987-.217 1.346-.61l.56-.61 3.29 3.577H1.304zm10.935-.587L8.947 5.002l3.291-3.582v7.16z" fill="#938F8F"/></svg>