<svg width="196" height="72" fill="none" xmlns="http://www.w3.org/2000/svg"><path d="M6.022 7a7 7 0 017-7h48.234a7 7 0 017 7v48.453a7 7 0 01-7 7H55.64a7 7 0 00-5.228 2.345l-1.915 2.151a7 7 0 01-9.7.731l-4.353-3.613a7 7 0 00-4.471-1.614h-16.95a7 7 0 01-7-7V7z" fill="#fff"/><path d="M36.431 23.288v16.8H34.68v-7.752H24.167v7.752h-1.776v-16.8h1.776v7.488H34.68v-7.488h1.752zm11.767 4.08c1.184 0 2.256.272 3.216.816a5.668 5.668 0 012.256 2.256c.544.976.816 2.088.816 3.336 0 1.264-.272 2.384-.816 3.36a5.832 5.832 0 01-2.256 2.28c-.944.528-2.016.792-3.216.792-1.024 0-1.952-.208-2.784-.624a5.374 5.374 0 01-2.016-1.872v7.032h-1.704v-17.28h1.632v2.496a5.273 5.273 0 012.016-1.92c.848-.448 1.8-.672 2.856-.672zm-.12 11.328c.88 0 1.68-.2 2.4-.6.72-.416 1.28-1 1.68-1.752.416-.752.624-1.608.624-2.568s-.208-1.808-.624-2.544a4.324 4.324 0 00-1.68-1.752 4.71 4.71 0 00-2.4-.624c-.896 0-1.704.208-2.424.624-.704.416-1.264 1-1.68 1.752-.4.736-.6 1.584-.6 2.544s.2 1.816.6 2.568a4.541 4.541 0 001.68 1.752c.72.4 1.528.6 2.424.6z" fill="#000"/><path d="M103.627 23.817v13.3h-4.484v-4.902H95v4.902h-4.484v-13.3H95v4.712h4.142v-4.712h4.484zm6.62 2.717c1.824 0 3.218.412 4.18 1.235.963.81 1.444 2.065 1.444 3.762v5.586h-3.99V35.75c-.494 1.039-1.475 1.558-2.945 1.558-.823 0-1.526-.14-2.109-.418-.57-.291-1.007-.678-1.311-1.159a3.196 3.196 0 01-.437-1.653c0-1.026.393-1.805 1.178-2.337.786-.532 1.976-.798 3.572-.798h1.729c-.139-.81-.791-1.216-1.957-1.216a4.72 4.72 0 00-1.425.228 3.86 3.86 0 00-1.235.59l-1.368-2.832c.596-.367 1.311-.652 2.147-.855a10.247 10.247 0 012.527-.323zm-.019 8.19c.304 0 .577-.083.817-.248.241-.164.418-.411.532-.74v-.723h-1.064c-.874 0-1.311.291-1.311.874 0 .24.089.444.266.608.19.152.444.228.76.228zm14.271-8.19a4.89 4.89 0 012.508.665c.773.43 1.381 1.058 1.824 1.881.456.824.684 1.774.684 2.85 0 1.077-.228 2.027-.684 2.85a4.737 4.737 0 01-1.824 1.881c-.76.43-1.596.646-2.508.646-1.152 0-2.033-.297-2.641-.893v4.39h-4.294v-14.08h4.085v.855c.621-.697 1.571-1.045 2.85-1.045zm-1.026 7.43c.494 0 .9-.178 1.216-.533.317-.354.475-.855.475-1.5 0-.647-.158-1.147-.475-1.502a1.532 1.532 0 00-1.216-.55c-.494 0-.899.183-1.216.55-.316.355-.475.855-.475 1.501 0 .646.159 1.147.475 1.501.317.355.722.532 1.216.532zm14.33-7.43a4.89 4.89 0 012.508.665c.773.43 1.381 1.058 1.824 1.881.456.824.684 1.774.684 2.85 0 1.077-.228 2.027-.684 2.85a4.737 4.737 0 01-1.824 1.881c-.76.43-1.596.646-2.508.646-1.153 0-2.033-.297-2.641-.893v4.39h-4.294v-14.08h4.085v.855c.621-.697 1.571-1.045 2.85-1.045zm-1.026 7.43c.494 0 .899-.178 1.216-.533.317-.354.475-.855.475-1.5 0-.647-.158-1.147-.475-1.502a1.534 1.534 0 00-1.216-.55c-.494 0-.899.183-1.216.55-.317.355-.475.855-.475 1.501 0 .646.158 1.147.475 1.501.317.355.722.532 1.216.532zm18.687-7.24l-4.275 10.602c-.544 1.355-1.222 2.306-2.033 2.85-.81.545-1.805.817-2.983.817a6.175 6.175 0 01-1.767-.266c-.582-.164-1.045-.386-1.387-.665l1.425-2.945c.216.165.456.298.722.4.279.1.545.151.798.151.469 0 .824-.14 1.064-.418l-4.37-10.526h4.408l2.147 5.567 2.185-5.567h4.066zm13.288-.19a4.89 4.89 0 012.508.665c.773.43 1.381 1.058 1.824 1.881.456.824.684 1.774.684 2.85 0 1.077-.228 2.027-.684 2.85a4.737 4.737 0 01-1.824 1.881c-.76.43-1.596.646-2.508.646-1.152 0-2.033-.297-2.641-.893v4.39h-4.294v-14.08h4.085v.855c.621-.697 1.571-1.045 2.85-1.045zm-1.026 7.43c.494 0 .9-.178 1.216-.533.317-.354.475-.855.475-1.5 0-.647-.158-1.147-.475-1.502a1.532 1.532 0 00-1.216-.55c-.494 0-.899.183-1.216.55-.316.355-.475.855-.475 1.501 0 .646.159 1.147.475 1.501.317.355.722.532 1.216.532zm18.453-2.053c0 .063-.019.4-.057 1.007h-7.22c.152.393.405.697.76.912.355.203.798.304 1.33.304.456 0 .836-.057 1.14-.17.317-.115.659-.311 1.026-.59l2.242 2.261c-1.013 1.115-2.527 1.672-4.541 1.672-1.254 0-2.356-.228-3.306-.684-.95-.468-1.685-1.114-2.204-1.938-.519-.823-.779-1.748-.779-2.774 0-1.039.253-1.963.76-2.774a5.316 5.316 0 012.109-1.919c.899-.456 1.906-.684 3.021-.684 1.051 0 2.008.21 2.869.627a4.868 4.868 0 012.071 1.843c.519.81.779 1.78.779 2.907zm-5.681-2.45c-.443 0-.811.12-1.102.36-.291.24-.481.583-.57 1.026h3.344c-.089-.43-.279-.766-.57-1.007-.291-.253-.659-.38-1.102-.38zm14.693 7.295c-.646.367-1.526.551-2.641.551-1.457 0-2.578-.348-3.363-1.045-.785-.71-1.178-1.767-1.178-3.173v-2.66h-1.425v-3.135h1.425v-2.907h4.294v2.907h2.128v3.135h-2.128v2.622c0 .317.082.564.247.741.165.177.38.266.646.266.367 0 .69-.095.969-.285l1.026 2.983z" fill="#fff"/></svg>