<svg width="196" height="72" fill="none" xmlns="http://www.w3.org/2000/svg"><path d="M6.022 7a7 7 0 017-7h48.234a7 7 0 017 7v48.453a7 7 0 01-7 7H55.64a7 7 0 00-5.228 2.345l-1.915 2.151a7 7 0 01-9.7.731l-4.353-3.613a7 7 0 00-4.471-1.614h-16.95a7 7 0 01-7-7V7z" fill="#000"/><path d="M36.431 23.288v16.8H34.68v-7.752H24.167v7.752h-1.776v-16.8h1.776v7.488H34.68v-7.488h1.752zm11.767 4.08c1.184 0 2.256.272 3.216.816a5.668 5.668 0 012.256 2.256c.544.976.816 2.088.816 3.336 0 1.264-.272 2.384-.816 3.36a5.832 5.832 0 01-2.256 2.28c-.944.528-2.016.792-3.216.792-1.024 0-1.952-.208-2.784-.624a5.374 5.374 0 01-2.016-1.872v7.032h-1.704v-17.28h1.632v2.496a5.273 5.273 0 012.016-1.92c.848-.448 1.8-.672 2.856-.672zm-.12 11.328c.88 0 1.68-.2 2.4-.6.72-.416 1.28-1 1.68-1.752.416-.752.624-1.608.624-2.568s-.208-1.808-.624-2.544a4.324 4.324 0 00-1.68-1.752 4.71 4.71 0 00-2.4-.624c-.896 0-1.704.208-2.424.624-.704.416-1.264 1-1.68 1.752-.4.736-.6 1.584-.6 2.544s.2 1.816.6 2.568a4.541 4.541 0 001.68 1.752c.72.4 1.528.6 2.424.6z" fill="#fff"/><path d="M103.627 23.817v13.3h-4.484v-4.902H95v4.902h-4.484v-13.3H95v4.712h4.142v-4.712h4.484zm6.62 2.717c1.824 0 3.218.411 4.18 1.235.963.81 1.444 2.064 1.444 3.762v5.586h-3.99v-1.368c-.494 1.038-1.475 1.558-2.945 1.558-.823 0-1.526-.14-2.109-.418-.57-.292-1.007-.678-1.311-1.16a3.196 3.196 0 01-.437-1.652c0-1.026.393-1.805 1.178-2.337.786-.532 1.976-.798 3.572-.798h1.729c-.139-.81-.791-1.216-1.957-1.216a4.72 4.72 0 00-1.425.228c-.481.14-.893.335-1.235.589l-1.368-2.831c.596-.368 1.311-.653 2.147-.855a10.242 10.242 0 012.527-.323zm-.019 8.189c.304 0 .577-.083.817-.247.241-.165.418-.412.532-.741v-.722h-1.064c-.874 0-1.311.291-1.311.874a.8.8 0 00.266.608c.19.152.444.228.76.228zm14.271-8.19c.912 0 1.748.222 2.508.666.773.43 1.381 1.057 1.824 1.88.456.824.684 1.774.684 2.85 0 1.077-.228 2.027-.684 2.85a4.738 4.738 0 01-1.824 1.882 5 5 0 01-2.508.646c-1.152 0-2.033-.298-2.641-.893v4.389h-4.294v-14.08h4.085v.856c.621-.697 1.571-1.045 2.85-1.045zm-1.026 7.43c.494 0 .9-.178 1.216-.532.317-.355.475-.855.475-1.501 0-.646-.158-1.147-.475-1.501a1.532 1.532 0 00-1.216-.551c-.494 0-.899.183-1.216.55-.316.355-.475.856-.475 1.502s.159 1.146.475 1.5c.317.355.722.533 1.216.533zm14.33-7.43c.912 0 1.748.222 2.508.666.773.43 1.381 1.057 1.824 1.88.456.824.684 1.774.684 2.85 0 1.077-.228 2.027-.684 2.85a4.738 4.738 0 01-1.824 1.882 5 5 0 01-2.508.646c-1.153 0-2.033-.298-2.641-.893v4.389h-4.294v-14.08h4.085v.856c.621-.697 1.571-1.045 2.85-1.045zm-1.026 7.43a1.56 1.56 0 001.216-.532c.317-.355.475-.855.475-1.501 0-.646-.158-1.147-.475-1.501a1.534 1.534 0 00-1.216-.551c-.494 0-.899.183-1.216.55-.317.355-.475.856-.475 1.502s.158 1.146.475 1.5c.317.355.722.533 1.216.533zm18.687-7.24l-4.275 10.603c-.544 1.355-1.222 2.305-2.033 2.85-.81.544-1.805.817-2.983.817a6.175 6.175 0 01-1.767-.266c-.582-.165-1.045-.387-1.387-.665l1.425-2.945c.216.164.456.297.722.399.279.101.545.152.798.152.469 0 .824-.14 1.064-.418l-4.37-10.526h4.408l2.147 5.567 2.185-5.567h4.066zm13.288-.19c.912 0 1.748.222 2.508.666.773.43 1.381 1.057 1.824 1.88.456.824.684 1.774.684 2.85 0 1.077-.228 2.027-.684 2.85a4.738 4.738 0 01-1.824 1.882 5 5 0 01-2.508.646c-1.152 0-2.033-.298-2.641-.893v4.389h-4.294v-14.08h4.085v.856c.621-.697 1.571-1.045 2.85-1.045zm-1.026 7.43c.494 0 .9-.178 1.216-.532.317-.355.475-.855.475-1.501 0-.646-.158-1.147-.475-1.501a1.532 1.532 0 00-1.216-.551c-.494 0-.899.183-1.216.55-.316.355-.475.856-.475 1.502s.159 1.146.475 1.5c.317.355.722.533 1.216.533zm18.453-2.052c0 .063-.019.399-.057 1.007h-7.22a1.8 1.8 0 00.76.912c.355.202.798.304 1.33.304.456 0 .836-.057 1.14-.171.317-.114.659-.31 1.026-.59l2.242 2.262c-1.013 1.114-2.527 1.672-4.541 1.672-1.254 0-2.356-.228-3.306-.684-.95-.469-1.685-1.115-2.204-1.938-.519-.824-.779-1.748-.779-2.774 0-1.039.253-1.964.76-2.774a5.315 5.315 0 012.109-1.92c.899-.455 1.906-.683 3.021-.683 1.051 0 2.008.209 2.869.627a4.868 4.868 0 012.071 1.843c.519.81.779 1.78.779 2.907zm-5.681-2.451c-.443 0-.811.12-1.102.36-.291.241-.481.583-.57 1.027h3.344c-.089-.43-.279-.767-.57-1.007-.291-.254-.659-.38-1.102-.38zm14.693 7.296c-.646.367-1.526.55-2.641.55-1.457 0-2.578-.348-3.363-1.044-.785-.71-1.178-1.767-1.178-3.173v-2.66h-1.425v-3.135h1.425v-2.907h4.294v2.907h2.128v3.135h-2.128v2.622c0 .316.082.563.247.74a.84.84 0 00.646.267c.367 0 .69-.095.969-.285l1.026 2.983z" fill="#000"/></svg>