<svg width="15" height="10" fill="none" xmlns="http://www.w3.org/2000/svg"><path d="M13.682 0H1.318C.59 0 0 .536 0 1.19v7.137c0 .658.594 1.19 1.318 1.19h12.364c.722 0 1.318-.53 1.318-1.19V1.19C15 .537 14.412 0 13.682 0zm-.185.793L8.432 5.34c-.249.225-.58.349-.932.349-.352 0-.683-.124-.933-.35L1.503.794h11.994zM.879 8.166V1.352L4.677 4.76.879 8.166zm.625.558L5.3 5.32l.646.58c.415.375.967.58 1.554.58.587 0 1.139-.205 1.553-.58l.647-.58 3.796 3.404H1.504zm12.617-.558l-3.798-3.405 3.798-3.41v6.815z" fill="#fff"/></svg>