<svg width="15" height="15" fill="none" xmlns="http://www.w3.org/2000/svg"><path d="M11.404 9.922c-.49-.483-1.101-.483-1.588 0-.372.369-.743.737-1.109 1.112-.1.103-.184.124-.305.056-.24-.131-.497-.238-.728-.381-1.077-.677-1.979-1.548-2.778-2.528-.396-.487-.749-1.009-.995-1.595-.05-.119-.041-.197.056-.294.371-.359.733-.727 1.098-1.095.51-.512.51-1.112-.003-1.627-.29-.293-.58-.58-.87-.874-.3-.3-.597-.602-.9-.899-.49-.477-1.101-.477-1.588.004-.375.368-.734.746-1.115 1.108-.352.334-.53.743-.568 1.22-.059.777.131 1.51.4 2.226.55 1.48 1.386 2.793 2.4 3.998a14.854 14.854 0 004.92 3.849c.861.418 1.754.74 2.724.793.668.037 1.249-.131 1.714-.653.318-.356.677-.68 1.014-1.02.5-.506.503-1.118.007-1.617-.593-.597-1.19-1.19-1.786-1.783zm-.597-2.487l1.152-.196A5.148 5.148 0 0010.52 4.46a5.12 5.12 0 00-2.934-1.463l-.162 1.158a3.972 3.972 0 012.272 1.133c.587.586.97 1.33 1.111 2.147zm1.802-5.007A8.493 8.493 0 007.739 0l-.162 1.158a7.364 7.364 0 014.208 2.098 7.358 7.358 0 012.063 3.98L15 7.038a8.555 8.555 0 00-2.391-4.61z" fill="#fff"/></svg>