<svg width="40" height="40" fill="none" xmlns="http://www.w3.org/2000/svg"><g clip-path="url(#clip0)" fill="#FC1D95"><path d="M14.14 15.418a4.692 4.692 0 004.688-4.688c0-2.094-1.642-7.214-4.687-7.214-3.046 0-4.688 5.12-4.688 7.214a4.692 4.692 0 004.688 4.688zm-6.525 8.62a4.686 4.686 0 001.716-6.402c-1.049-1.814-5.112-5.424-7.745-3.905-2.637 1.524-1.421 6.78-.375 8.592a4.686 4.686 0 006.404 1.715zm18.245-8.62a4.692 4.692 0 004.687-4.688c0-2.094-1.642-7.214-4.688-7.214-3.045 0-4.687 5.12-4.687 7.214a4.692 4.692 0 004.687 4.688zm6.503 8.578c2.257 1.302 5.194.513 6.481-1.717 1.234-2.135 1.993-7.179-.452-8.592-2.642-1.522-6.698 2.09-7.744 3.905a4.687 4.687 0 001.715 6.404zm-20.566-.376v.676c0 .48-.286.906-.73 1.087-2.405.977-3.958 3.047-3.958 5.269 0 3.23 3.154 5.86 7.032 5.86a8.46 8.46 0 002.096-.24 15.398 15.398 0 017.534 0 8.35 8.35 0 002.088.24c3.878 0 7.032-2.63 7.032-5.86 0-2.222-1.553-4.292-3.958-5.27a1.166 1.166 0 01-.73-1.086v-.675c0-5.86-6.174-5.86-8.203-5.86-2.03 0-8.203 0-8.203 5.86z"/></g><defs><clipPath id="clip0"><path fill="#fff" d="M0 0h40v40H0z"/></clipPath></defs></svg>